<svg xmlns="http://www.w3.org/2000/svg" viewBox="0 0 139.18 111.4"><defs><style>.cls-1{fill:#2c1e14;}</style></defs><g id="Слой_2" data-name="Слой 2"><g id="Слой_1-2" data-name="Слой 1"><path class="cls-1" d="M24.12,58.58a1.56,1.56,0,0,1-2,.91c-17.91-7.4-25-24.4-21-50.54L2.22,1.33a1.57,1.57,0,0,1,3.08-.1L7,8.75c2.88,13,9.83,20.7,21.23,23.48a1.58,1.58,0,0,1,1.19,1.84l-.57,2.81a1.55,1.55,0,0,1-1.87,1.22A32.22,32.22,0,0,1,9.08,27.38a1.57,1.57,0,0,0-2.76,1.18c1.43,12.57,7.38,20.93,18,25.35a1.55,1.55,0,0,1,.84,2Z"/><path class="cls-1" d="M115.07,58.58a1.55,1.55,0,0,0,2,.91c17.9-7.4,25-24.4,21-50.54L137,1.33a1.57,1.57,0,0,0-3.08-.1l-1.66,7.52c-2.88,13-9.83,20.7-21.22,23.48a1.58,1.58,0,0,0-1.2,1.84l.57,2.81a1.55,1.55,0,0,0,1.87,1.22A32.22,32.22,0,0,0,130.1,27.38a1.57,1.57,0,0,1,2.76,1.18c-1.43,12.57-7.38,20.93-18,25.35a1.55,1.55,0,0,0-.84,2Z"/><ellipse class="cls-1" cx="54.27" cy="57.26" rx="5.39" ry="7.47" transform="translate(-24.07 47.92) rotate(-39.73)"/><ellipse class="cls-1" cx="86.14" cy="57.26" rx="7.47" ry="5.39" transform="translate(-12.96 86.9) rotate(-50.27)"/><path class="cls-1" d="M26.9,81.59a11.21,11.21,0,0,1-2.73-.33,11.58,11.58,0,0,1-7.26-6l-.48-.85a1.69,1.69,0,0,1,.26-2L27.78,61.07a1.72,1.72,0,0,1,2.42,0l1.85,1.81a1.71,1.71,0,0,1,0,2.41L24.9,72.61a1.69,1.69,0,0,0,.7,2.82h0c1.82.46,4.35-.19,7.37-1.87a1.7,1.7,0,0,1,2.28.57l1.39,2.19a1.72,1.72,0,0,1-.6,2.4A18.93,18.93,0,0,1,26.9,81.59Z"/><path class="cls-1" d="M113.78,81.59a18.87,18.87,0,0,1-9.15-2.85,1.75,1.75,0,0,1-.61-2.43l1.37-2.16a1.74,1.74,0,0,1,2.31-.58c3,1.68,5.54,2.33,7.36,1.87h0a1.67,1.67,0,0,0,.78-2.78l-7.22-7.38a1.73,1.73,0,0,1,0-2.44l1.83-1.78a1.71,1.71,0,0,1,2.43,0L124,72.41a1.72,1.72,0,0,1,.26,2l-.47.84a11.61,11.61,0,0,1-7.26,6A11.24,11.24,0,0,1,113.78,81.59Z"/><path class="cls-1" d="M102,55.24,87.73,96.34c-5.73,12.91-28.91,11.28-33.44,0L39,55.56a41.35,41.35,0,0,1-1.11-4.05c-1.52-5-7.35-2.92-6.81,0v0c0,.05,17.61,47,17.63,47,3.16,7.79,12.06,12.86,22.44,12.85,9.47,0,17.38-4.12,21.2-10.9a20.22,20.22,0,0,0,1.37-3.17l15.89-45.82c.62-2.16-4.91-5.32-6.67,0A20.94,20.94,0,0,1,102,55.24Z"/><path class="cls-1" d="M86.11,38.78a42.74,42.74,0,0,0-31.5,0,3,3,0,0,1-3.83-1.59h0a3,3,0,0,1,1.67-4,49.21,49.21,0,0,1,35.82,0,3,3,0,0,1,1.67,4h0A3,3,0,0,1,86.11,38.78Z"/><rect class="cls-1" x="67.36" y="88.72" width="6" height="12.46" rx="3"/></g></g></svg>