<?xml version="1.0" encoding="utf-8"?>
<!-- Generator: Adobe Illustrator 25.4.1, SVG Export Plug-In . SVG Version: 6.00 Build 0)  -->
<svg version="1.1" id="Capa_1" xmlns="http://www.w3.org/2000/svg" xmlns:xlink="http://www.w3.org/1999/xlink" x="0px" y="0px"
	 viewBox="0 0 512 512" style="enable-background:new 0 0 512 512;" xml:space="preserve">
<style type="text/css">
	.st0{fill:#FFFFFF;}
	.st1{fill:#BE0B20;}
</style>
<g>
	<path class="st0" d="M288,193h-64c-8.3,0-15,6.7-15,15v176c0,8.3,6.7,15,15,15h64c8.3,0,15-6.7,15-15V208
		C303,199.7,296.3,193,288,193z"/>
	<path class="st0" d="M303,208v176c0,8.3-6.7,15-15,15h-32V193h32C296.3,193,303,199.7,303,208z"/>
	<path class="st0" d="M318.4,435.9l-15.4-54h-94l-15.4,54c-2.8,9.6,4.5,19.1,14.4,19.1h96C313.9,455,321.2,445.5,318.4,435.9z"/>
	<path class="st0" d="M304,455h-48v-73.1h47l15.4,54C321.2,445.5,313.9,455,304,455z"/>
	<path class="st0" d="M128,399H64c-8.3,0-15-6.7-15-15V208c0-8.3,6.7-15,15-15h64c8.3,0,15,6.7,15,15v176
		C143,392.3,136.3,399,128,399z"/>
	<path class="st0" d="M158.4,435.9l-15.4-54H49l-15.4,54C30.8,445.5,38.1,455,48,455h96C153.9,455,161.2,445.5,158.4,435.9z"/>
	<path class="st0" d="M456,399h-64c-8.3,0-15-6.7-15-15V208c0-8.3,6.7-15,15-15h64c8.3,0,15,6.7,15,15v176
		C471,392.3,464.3,399,456,399z"/>
	<path class="st0" d="M486.4,435.9l-15.4-54h-94l-15.4,54c-2.8,9.6,4.5,19.1,14.4,19.1h96C481.9,455,489.2,445.5,486.4,435.9z"/>
	<path class="st0" d="M497,425H15c-8.3,0-15,6.7-15,15v57c0,8.3,6.7,15,15,15h482c8.3,0,15-6.7,15-15v-57
		C512,431.7,505.3,425,497,425z"/>
	<path class="st0" d="M512,440v57c0,8.3-6.7,15-15,15H256v-87h241C505.3,425,512,431.7,512,440z"/>
	<path class="st0" d="M144,223H32c-8.3,0-15-6.7-15-15v-64c0-8.3,6.7-15,15-15h112c8.3,0,15,6.7,15,15v64
		C159,216.3,152.3,223,144,223z"/>
	<path class="st0" d="M480,223H368c-8.3,0-15-6.7-15-15v-64c0-8.3,6.7-15,15-15h112c8.3,0,15,6.7,15,15v64
		C495,216.3,488.3,223,480,223z"/>
	<path class="st0" d="M362,129H158c-8.3,0-15,6.7-15,15v64c0,8.3,6.7,15,15,15h204c8.3,0,15-6.7,15-15v-64
		C377,135.7,370.3,129,362,129z"/>
	<path class="st0" d="M377,144v64c0,8.3-6.7,15-15,15H256v-94h106C370.3,129,377,135.7,377,144z"/>
	<path class="st0" d="M504.1,130.8l-241-129c-4.4-2.4-9.7-2.4-14.2,0l-241,129C1.9,134-1.2,141,0.5,147.6C2.1,154.3,8.1,159,15,159
		h482c6.9,0,12.9-4.7,14.5-11.4S510.1,134,504.1,130.8z"/>
	<path class="st0" d="M511.6,147.6c-1.7,6.7-7.7,11.4-14.6,11.4H256V0c2.4,0,4.9,0.6,7.1,1.8l241,129
		C510.1,134,513.2,141,511.6,147.6z"/>
	<circle class="st1" cx="256" cy="96" r="32"/>
	<path class="st1" d="M288,96c0,17.7-14.3,32-32,32V64C273.7,64,288,78.3,288,96z"/>
	<path class="st0" d="M512,208c0,8.3-6.7,15-15,15H15c-8.3,0-15-6.7-15-15s6.7-15,15-15h482C505.3,193,512,199.7,512,208z"/>
	<path class="st0" d="M512,208c0,8.3-6.7,15-15,15H256v-30h241C505.3,193,512,199.7,512,208z"/>
</g>
</svg>
