<svg id="Capa_1" enable-background="new 0 0 512.001 512.001" height="512" viewBox="0 0 512.001 512.001" width="512" xmlns="http://www.w3.org/2000/svg"><g><path d="m288 193h-64c-8.28 0-15 6.72-15 15v176c0 8.28 6.72 15 15 15h64c8.28 0 15-6.72 15-15v-176c0-8.28-6.719-15-15-15z" fill="#edbc85"/><path d="m303 208v176c0 8.28-6.72 15-15 15h-32v-206h32c8.281 0 15 6.72 15 15z" fill="#e9a86c"/><path d="m318.42 435.88-15.42-53.98h-94l-15.42 53.98c-2.752 9.59 4.48 19.12 14.42 19.12h96c9.938 0 17.173-9.528 14.42-19.12z" fill="#e9a86c"/><path d="m304 455h-48v-73.1h47l15.42 53.98c2.752 9.59-4.48 19.12-14.42 19.12z" fill="#e79a58"/><path d="m128 399h-64c-8.284 0-15-6.716-15-15v-176c0-8.284 6.716-15 15-15h64c8.284 0 15 6.716 15 15v176c0 8.285-6.715 15-15 15z" fill="#edbc85"/><path d="m158.42 435.88-15.42-53.98h-94l-15.42 53.98c-2.751 9.59 4.481 19.12 14.42 19.12h96c9.938 0 17.173-9.528 14.42-19.12z" fill="#e9a86c"/><path d="m456 399h-64c-8.284 0-15-6.716-15-15v-176c0-8.284 6.716-15 15-15h64c8.284 0 15 6.716 15 15v176c0 8.285-6.715 15-15 15z" fill="#e9a86c"/><path d="m486.42 435.88-15.42-53.98h-94l-15.42 53.98c-2.752 9.59 4.48 19.12 14.42 19.12h96c9.938 0 17.173-9.528 14.42-19.12z" fill="#e79a58"/><path d="m497 425h-482c-8.28 0-15 6.72-15 15v57c0 8.28 6.72 15 15 15h482c8.28 0 15-6.72 15-15v-57c0-8.28-6.719-15-15-15z" fill="#f2d1a3"/><path d="m512 440v57c0 8.28-6.72 15-15 15h-241v-87h241c8.281 0 15 6.72 15 15z" fill="#edbc85"/><path d="m144 223h-112c-8.284 0-15-6.716-15-15v-64c0-8.284 6.716-15 15-15h112c8.284 0 15 6.716 15 15v64c0 8.285-6.715 15-15 15z" fill="#e9a86c"/><path d="m480 223h-112c-8.284 0-15-6.716-15-15v-64c0-8.284 6.716-15 15-15h112c8.284 0 15 6.716 15 15v64c0 8.285-6.715 15-15 15z" fill="#e79a58"/><path d="m362 129h-204c-8.28 0-15 6.72-15 15v64c0 8.28 6.72 15 15 15h204c8.28 0 15-6.72 15-15v-64c0-8.28-6.719-15-15-15z" fill="#edbc85"/><path d="m377 144v64c0 8.28-6.72 15-15 15h-106v-94h106c8.281 0 15 6.72 15 15z" fill="#e9a86c"/><path d="m504.081 130.78-241-129c-4.441-2.371-9.711-2.375-14.16 0l-241 129c-6.06 3.24-9.14 10.2-7.47 16.87 1.669 6.67 7.669 11.35 14.549 11.35h482c6.88 0 12.88-4.68 14.55-11.35s-1.409-13.629-7.469-16.87z" fill="#f2d1a3"/><path d="m511.551 147.65c-1.671 6.67-7.671 11.35-14.551 11.35h-241v-159c2.44 0 4.87.6 7.08 1.78l241 129c6.061 3.241 9.14 10.2 7.471 16.87z" fill="#edbc85"/><circle cx="256" cy="96" fill="#e9a86c" r="32"/><path d="m288 96c0 17.67-14.33 32-32 32v-64c17.67 0 32 14.331 32 32z" fill="#e79a58"/><path d="m512 208c0 8.28-6.72 15-15 15h-482c-8.28 0-15-6.72-15-15s6.72-15 15-15h482c8.281 0 15 6.72 15 15z" fill="#f2d1a3"/><path d="m512 208c0 8.28-6.72 15-15 15h-241v-30h241c8.281 0 15 6.72 15 15z" fill="#edbc85"/></g></svg>